<svg width="1280" height="720" xmlns="http://www.w3.org/2000/svg" xmlns:xlink="http://www.w3.org/1999/xlink" overflow="hidden"><defs><filter id="fx0" x="-10%" y="-10%" width="120%" height="120%" filterUnits="userSpaceOnUse" primitiveUnits="userSpaceOnUse"><feComponentTransfer color-interpolation-filters="sRGB"><feFuncR type="discrete" tableValues="0 0"/><feFuncG type="discrete" tableValues="0 0"/><feFuncB type="discrete" tableValues="0 0"/><feFuncA type="linear" slope="0.4" intercept="0"/></feComponentTransfer><feGaussianBlur stdDeviation="1.55495 1.55495"/></filter><linearGradient x1="1032" y1="193.5" x2="240" y2="193.5" gradientUnits="userSpaceOnUse" spreadMethod="reflect" id="fill1"><stop offset="0" stop-color="#9FA1A3"/><stop offset="0.5" stop-color="#C5C6C7"/><stop offset="1" stop-color="#E3E3E4"/></linearGradient><linearGradient x1="914" y1="322" x2="406" y2="322" gradientUnits="userSpaceOnUse" spreadMethod="reflect" id="fill2"><stop offset="0" stop-color="#FF9C80"/><stop offset="0.5" stop-color="#FFC1B3"/><stop offset="1" stop-color="#FFE1DA"/></linearGradient><clipPath id="clip3"><rect x="41" y="33" width="113" height="63"/></clipPath><linearGradient x1="914" y1="423" x2="406" y2="423" gradientUnits="userSpaceOnUse" spreadMethod="reflect" id="fill4"><stop offset="0" stop-color="#B897FF"/><stop offset="0.5" stop-color="#D2BFFF"/><stop offset="1" stop-color="#E8DFFF"/></linearGradient><linearGradient x1="914" y1="525" x2="406" y2="525" gradientUnits="userSpaceOnUse" spreadMethod="reflect" id="fill5"><stop offset="0" stop-color="#92CFCF"/><stop offset="0.5" stop-color="#BEE0E0"/><stop offset="1" stop-color="#E0EFEF"/></linearGradient><linearGradient x1="914" y1="628" x2="406" y2="628" gradientUnits="userSpaceOnUse" spreadMethod="reflect" id="fill6"><stop offset="0" stop-color="#F3F38A"/><stop offset="0.5" stop-color="#F5F5B9"/><stop offset="1" stop-color="#FAFADD"/></linearGradient></defs><g><rect x="0" y="0" width="1280" height="720" fill="#FFFFFF"/><path d="M240 157.25 959.5 157.25 959.5 121 1032 193.5 959.5 266 959.5 229.75 240 229.75Z" fill="url(#fill1)" fill-rule="evenodd"/><text font-family="Calibri,Calibri_MSFontService,sans-serif" font-weight="400" font-size="58.6667" transform="translate(258.141 211)">Low</text><path d="M406 301.5 873 301.5 873 281 914 322 873 363 873 342.5 406 342.5Z" fill="url(#fill2)" fill-rule="evenodd"/><text font-family="Calibri,Calibri_MSFontService,sans-serif" font-weight="400" font-size="24" transform="translate(246.496 315)">Internal</text><text font-family="Calibri,Calibri_MSFontService,sans-serif" font-weight="400" font-size="24" transform="translate(247.103 344)">consultation</text><text font-family="Calibri,Calibri_MSFontService,sans-serif" font-weight="400" font-size="24" transform="translate(932.282 314)">Expert</text><text font-family="Calibri,Calibri_MSFontService,sans-serif" font-weight="400" font-size="24" transform="translate(932.282 343)">consultation</text><g clip-path="url(#clip3)" filter="url(#fx0)" transform="translate(830 128)"><g><path d="M31.625-0.744792C31.625-0.592014 31.5868-0.458333 31.5104-0.34375 31.434-0.229167 31.3003-0.138455 31.1094-0.0716146 30.9184-0.00477431 30.6654 0.0525174 30.3503 0.10026 30.0352 0.148003 29.6484 0.171875 29.1901 0.171875 28.6936 0.171875 28.2925 0.148003 27.987 0.10026 27.6814 0.0525174 27.4332-0.00477431 27.2422-0.0716146 27.0512-0.138455 26.9175-0.229167 26.8411-0.34375 26.7648-0.458333 26.7266-0.592014 26.7266-0.744792L26.7266-17.1875 9.85417-17.1875 9.85417-0.744792C9.85417-0.592014 9.81597-0.458333 9.73958-0.34375 9.66319-0.229167 9.52951-0.138455 9.33854-0.0716146 9.14757-0.00477431 8.89453 0.0525174 8.57943 0.10026 8.26432 0.148003 7.86806 0.171875 7.39062 0.171875 6.93229 0.171875 6.5408 0.148003 6.21615 0.10026 5.89149 0.0525174 5.63368-0.00477431 5.44271-0.0716146 5.25174-0.138455 5.11806-0.229167 5.04167-0.34375 4.96528-0.458333 4.92708-0.592014 4.92708-0.744792L4.92708-36.3229C4.92708-36.4757 4.96528-36.6094 5.04167-36.724 5.11806-36.8385 5.25174-36.9293 5.44271-36.9961 5.63368-37.0629 5.89149-37.1202 6.21615-37.168 6.5408-37.2157 6.93229-37.2396 7.39062-37.2396 7.86806-37.2396 8.26432-37.2157 8.57943-37.168 8.89453-37.1202 9.14757-37.0629 9.33854-36.9961 9.52951-36.9293 9.66319-36.8385 9.73958-36.724 9.81597-36.6094 9.85417-36.4757 9.85417-36.3229L9.85417-21.4844 26.7266-21.4844 26.7266-36.3229C26.7266-36.4757 26.7648-36.6094 26.8411-36.724 26.9175-36.8385 27.0512-36.9293 27.2422-36.9961 27.4332-37.0629 27.6814-37.1202 27.987-37.168 28.2925-37.2157 28.6936-37.2396 29.1901-37.2396 29.6484-37.2396 30.0352-37.2157 30.3503-37.168 30.6654-37.1202 30.9184-37.0629 31.1094-36.9961 31.3003-36.9293 31.434-36.8385 31.5104-36.724 31.5868-36.6094 31.625-36.4757 31.625-36.3229ZM45.6094-0.716146C45.6094-0.563368 45.5712-0.434462 45.4948-0.329427 45.4184-0.224392 45.2943-0.133681 45.1224-0.0572917 44.9505 0.0190972 44.7118 0.0763889 44.4062 0.114583 44.1007 0.152778 43.7092 0.171875 43.2318 0.171875 42.7734 0.171875 42.3915 0.152778 42.0859 0.114583 41.7804 0.0763889 41.5369 0.0190972 41.3555-0.0572917 41.174-0.133681 41.0499-0.224392 40.9831-0.329427 40.9162-0.434462 40.8828-0.563368 40.8828-0.716146L40.8828-26.4974C40.8828-26.6311 40.9162-26.7552 40.9831-26.8698 41.0499-26.9844 41.174-27.0799 41.3555-27.1562 41.5369-27.2326 41.7804-27.2899 42.0859-27.3281 42.3915-27.3663 42.7734-27.3854 43.2318-27.3854 43.7092-27.3854 44.1007-27.3663 44.4062-27.3281 44.7118-27.2899 44.9505-27.2326 45.1224-27.1562 45.2943-27.0799 45.4184-26.9844 45.4948-26.8698 45.5712-26.7552 45.6094-26.6311 45.6094-26.4974ZM46.1536-35.2057C46.1536-34.0981 45.9436-33.3438 45.5234-32.9427 45.1033-32.5417 44.3299-32.3411 43.2031-32.3411 42.0955-32.3411 41.3364-32.5369 40.9258-32.9284 40.5152-33.3199 40.3099-34.0599 40.3099-35.1484 40.3099-36.2561 40.52-37.0104 40.9401-37.4115 41.3602-37.8125 42.1337-38.013 43.2604-38.013 44.3681-38.013 45.1272-37.8173 45.5378-37.4258 45.9483-37.0343 46.1536-36.2943 46.1536-35.2057ZM75.9245-25.3229C75.9245-24.6545 75.8338-24.1723 75.6523-23.8763 75.4709-23.5803 75.237-23.4323 74.9505-23.4323L71.2552-23.4323C71.9236-22.7448 72.3915-21.9857 72.6589-21.1549 72.9262-20.3242 73.0599-19.4601 73.0599-18.5625 73.0599-17.0729 72.8212-15.7552 72.3438-14.6094 71.8663-13.4635 71.1836-12.4944 70.2956-11.7018 69.4076-10.9093 68.3524-10.303 67.1302-9.88281 65.908-9.46267 64.5521-9.2526 63.0625-9.2526 62.0122-9.2526 61.0143-9.39106 60.069-9.66797 59.1237-9.94488 58.3932-10.2934 57.8776-10.7135 57.5339-10.3698 57.2522-9.9783 57.0326-9.53906 56.8129-9.09983 56.7031-8.59375 56.7031-8.02083 56.7031-7.35243 57.0135-6.79861 57.6341-6.35938 58.2548-5.92014 59.0807-5.68142 60.112-5.64323L66.8438-5.35677C68.1233-5.31858 69.2977-5.14193 70.3672-4.82682 71.4366-4.51172 72.3629-4.06293 73.1458-3.48047 73.9288-2.898 74.5399-2.18186 74.9792-1.33203 75.4184-0.482205 75.638 0.506076 75.638 1.63281 75.638 2.81684 75.3898 3.94358 74.8932 5.01302 74.3967 6.08247 73.6376 7.023 72.6159 7.83464 71.5942 8.64627 70.2908 9.28602 68.7057 9.75391 67.1207 10.2218 65.2491 10.4557 63.0911 10.4557 61.0095 10.4557 59.2383 10.2791 57.7773 9.92578 56.3164 9.57248 55.1181 9.09028 54.1823 8.47917 53.2465 7.86806 52.5686 7.13759 52.1484 6.28776 51.7283 5.43793 51.5182 4.51649 51.5182 3.52344 51.5182 2.89323 51.5946 2.28212 51.7474 1.6901 51.9002 1.09809 52.1341 0.534722 52.4492 0 52.7643-0.534722 53.1558-1.04557 53.6237-1.53255 54.0916-2.01953 54.6311-2.50174 55.2422-2.97917 54.3064-3.4566 53.6142-4.05816 53.1654-4.78385 52.7166-5.50955 52.4922-6.29253 52.4922-7.13281 52.4922-8.29774 52.7309-9.33854 53.2083-10.2552 53.6858-11.1719 54.2778-11.9931 54.9844-12.7188 54.3924-13.4253 53.9245-14.2227 53.5807-15.1107 53.237-15.9987 53.0651-17.0729 53.0651-18.3333 53.0651-19.8038 53.3134-21.1215 53.8099-22.2865 54.3064-23.4514 54.9939-24.4349 55.8724-25.237 56.7509-26.0391 57.806-26.6549 59.0378-27.0846 60.2695-27.5143 61.6111-27.7292 63.0625-27.7292 63.8455-27.7292 64.576-27.6862 65.2539-27.6003 65.9319-27.5143 66.5668-27.395 67.1589-27.2422L74.9505-27.2422C75.2752-27.2422 75.5187-27.0846 75.681-26.7695 75.8433-26.4544 75.9245-25.9722 75.9245-25.3229ZM68.5339-18.5339C68.5339-20.2908 68.0517-21.661 67.0872-22.6445 66.1228-23.628 64.7526-24.1198 62.9766-24.1198 62.0599-24.1198 61.2626-23.967 60.5846-23.6615 59.9067-23.3559 59.3433-22.9358 58.8945-22.401 58.4457-21.8663 58.1115-21.2504 57.8919-20.5534 57.6723-19.8563 57.5625-19.1259 57.5625-18.362 57.5625-16.6623 58.0447-15.3255 59.0091-14.3516 59.9735-13.3776 61.3247-12.8906 63.0625-12.8906 63.9983-12.8906 64.8099-13.0386 65.4974-13.3346 66.1849-13.6306 66.753-14.0412 67.2018-14.5664 67.6506-15.0916 67.9848-15.6979 68.2044-16.3854 68.424-17.0729 68.5339-17.7891 68.5339-18.5339ZM70.9115 1.89062C70.9115 0.782986 70.4579-0.0716146 69.5508-0.673177 68.6437-1.27474 67.4167-1.59462 65.8698-1.63281L59.1953-1.86198C58.5842-1.38455 58.0829-0.93099 57.6914-0.501302 57.2999-0.0716146 56.9896 0.338976 56.7604 0.730469 56.5312 1.12196 56.3737 1.50868 56.2878 1.89062 56.2018 2.27257 56.1589 2.66406 56.1589 3.0651 56.1589 4.30642 56.7891 5.24696 58.0495 5.88672 59.3099 6.52648 61.0668 6.84635 63.3203 6.84635 64.7526 6.84635 65.951 6.7079 66.9154 6.43099 67.8798 6.15408 68.658 5.78646 69.25 5.32812 69.842 4.86979 70.2669 4.34462 70.5247 3.7526 70.7825 3.16059 70.9115 2.53993 70.9115 1.89062ZM104.25-0.716146C104.25-0.563368 104.212-0.434462 104.135-0.329427 104.059-0.224392 103.935-0.133681 103.763-0.0572917 103.591 0.0190972 103.352 0.0763889 103.047 0.114583 102.741 0.152778 102.359 0.171875 101.901 0.171875 101.424 0.171875 101.032 0.152778 100.727 0.114583 100.421 0.0763889 100.182 0.0190972 100.01-0.0572917 99.8385-0.133681 99.7144-0.224392 99.638-0.329427 99.5616-0.434462 99.5234-0.563368 99.5234-0.716146L99.5234-15.8125C99.5234-17.283 99.4089-18.467 99.1797-19.3646 98.9505-20.2622 98.6163-21.0356 98.1771-21.6849 97.7379-22.3342 97.1697-22.8307 96.4727-23.1745 95.7756-23.5182 94.9688-23.6901 94.0521-23.6901 92.8681-23.6901 91.684-23.27 90.5-22.4297 89.316-21.5894 88.0747-20.3576 86.776-18.7344L86.776-0.716146C86.776-0.563368 86.7378-0.434462 86.6615-0.329427 86.5851-0.224392 86.4609-0.133681 86.2891-0.0572917 86.1172 0.0190972 85.8785 0.0763889 85.5729 0.114583 85.2674 0.152778 84.8759 0.171875 84.3984 0.171875 83.9401 0.171875 83.5582 0.152778 83.2526 0.114583 82.9471 0.0763889 82.7036 0.0190972 82.5221-0.0572917 82.3407-0.133681 82.2166-0.224392 82.1497-0.329427 82.0829-0.434462 82.0495-0.563368 82.0495-0.716146L82.0495-38.987C82.0495-39.1398 82.0829-39.2734 82.1497-39.388 82.2166-39.5026 82.3407-39.5981 82.5221-39.6745 82.7036-39.7509 82.9471-39.8082 83.2526-39.8464 83.5582-39.8845 83.9401-39.9036 84.3984-39.9036 84.8759-39.9036 85.2674-39.8845 85.5729-39.8464 85.8785-39.8082 86.1172-39.7509 86.2891-39.6745 86.4609-39.5981 86.5851-39.5026 86.6615-39.388 86.7378-39.2734 86.776-39.1398 86.776-38.987L86.776-23.5469C88.1319-24.9792 89.4974-26.0438 90.8724-26.7409 92.2474-27.4379 93.6319-27.7865 95.026-27.7865 96.7448-27.7865 98.1914-27.4952 99.3659-26.9128 100.54-26.3303 101.49-25.5521 102.216-24.5781 102.942-23.6042 103.462-22.4631 103.777-21.1549 104.092-19.8468 104.25-18.2665 104.25-16.4141Z" fill="#FFFFFF" transform="matrix(1.02 0 0 1.02 41.2751 80)"/></g></g><text fill="#FFFFFF" font-family="Calibri,Calibri_MSFontService,sans-serif" font-weight="400" font-size="58.6667" transform="translate(872.36 208)">High</text><path d="M406 402.5 873 402.5 873 382 914 423 873 464 873 443.5 406 443.5Z" fill="url(#fill4)" fill-rule="evenodd"/><path d="M406 504.5 873 504.5 873 484 914 525 873 566 873 545.5 406 545.5Z" fill="url(#fill5)" fill-rule="evenodd"/><path d="M406 607.5 873 607.5 873 587 914 628 873 669 873 648.5 406 648.5Z" fill="url(#fill6)" fill-rule="evenodd"/><text font-family="Calibri,Calibri_MSFontService,sans-serif" font-weight="400" font-size="24" transform="translate(249.707 416)">Minimal</text><text font-family="Calibri,Calibri_MSFontService,sans-serif" font-weight="400" font-size="24" transform="translate(249.707 445)">viable RAP</text><text font-family="Calibri,Calibri_MSFontService,sans-serif" font-weight="400" font-size="24" transform="translate(936.21 416)">Full RAP</text><text font-family="Calibri,Calibri_MSFontService,sans-serif" font-weight="400" font-size="24" transform="translate(936.21 445)">project</text><text font-family="Calibri,Calibri_MSFontService,sans-serif" font-weight="400" font-size="24" transform="translate(249.707 517)">Analyst</text><text font-family="Calibri,Calibri_MSFontService,sans-serif" font-weight="400" font-size="24" transform="translate(320.887 517)">-</text><text font-family="Calibri,Calibri_MSFontService,sans-serif" font-weight="400" font-size="24" transform="translate(328.22 517)">led</text><text font-family="Calibri,Calibri_MSFontService,sans-serif" font-weight="400" font-size="24" transform="translate(249.707 546)">testing</text><text font-family="Calibri,Calibri_MSFontService,sans-serif" font-weight="400" font-size="24" transform="translate(936.21 519)">External</text><text font-family="Calibri,Calibri_MSFontService,sans-serif" font-weight="400" font-size="24" transform="translate(936.21 548)">audit</text><text font-family="Calibri,Calibri_MSFontService,sans-serif" font-weight="400" font-size="24" transform="translate(246.496 619)">In</text><text font-family="Calibri,Calibri_MSFontService,sans-serif" font-weight="400" font-size="24" transform="translate(265.163 619)">-</text><text font-family="Calibri,Calibri_MSFontService,sans-serif" font-weight="400" font-size="24" transform="translate(272.496 619)">line</text><text font-family="Calibri,Calibri_MSFontService,sans-serif" font-weight="400" font-size="24" transform="translate(246.496 648)">documentation</text><text font-family="Calibri,Calibri_MSFontService,sans-serif" font-weight="400" font-size="24" transform="translate(932.282 619)">Full project</text><text font-family="Calibri,Calibri_MSFontService,sans-serif" font-weight="400" font-size="24" transform="translate(932.282 648)">documentation</text><text font-family="Calibri,Calibri_MSFontService,sans-serif" font-weight="400" font-size="24" transform="translate(449.151 328)">Consultation on methods/assumptions</text><text font-family="Calibri,Calibri_MSFontService,sans-serif" font-weight="400" font-size="24" transform="translate(554.874 429)">Use of RAP tools</text><text font-family="Calibri,Calibri_MSFontService,sans-serif" font-weight="400" font-size="24" transform="translate(494.582 531)">Analyst</text><text font-family="Calibri,Calibri_MSFontService,sans-serif" font-weight="400" font-size="24" transform="translate(565.762 531)">-</text><text font-family="Calibri,Calibri_MSFontService,sans-serif" font-weight="400" font-size="24" transform="translate(573.095 531)">assurer separation</text><text font-family="Calibri,Calibri_MSFontService,sans-serif" font-weight="400" font-size="24" transform="translate(518.13 636)">Documentation detail</text><rect x="193" y="37" width="914" height="664" stroke="#000000" stroke-width="4" stroke-miterlimit="8" fill="none"/><text font-family="Calibri,Calibri_MSFontService,sans-serif" font-weight="400" font-size="37.3333" transform="translate(302.349 91)">Business Risk</text><text font-family="Calibri,Calibri_MSFontService,sans-serif" font-weight="400" font-size="37.3333" transform="translate(510.515 91)">and/or</text><text font-family="Calibri,Calibri_MSFontService,sans-serif" font-weight="400" font-size="37.3333" transform="translate(622.708 91)">Analytical Complexity</text></g></svg>